{
  "accessors": [
    {
      "bufferView": 2,
      "componentType": 5126,
      "count": 4507,
      "max": [
        1.365588665008545,
        0.46388354897499084,
        1.1188924312591553
      ],
      "min": [
        -1.365588665008545,
        -0.46120065450668335,
        0.0006283945986069739
      ],
      "type": "VEC3"
    },
    {
      "bufferView": 2,
      "byteOffset": 54084,
      "componentType": 5126,
      "count": 4507,
      "max": [
        0.9999997615814209,
        1.0,
        1.0
      ],
      "min": [
        -0.9999997615814209,
        -1.0,
        -1.0
      ],
      "type": "VEC3"
    },
    {
      "bufferView": 3,
      "componentType": 5126,
      "count": 4507,
      "max": [
        1.0,
        1.0,
        0.999999463558197,
        1.0
      ],
      "min": [
        -1.0,
        -0.9999599456787109,
        -0.9999867081642151,
        -1.0
      ],
      "type": "VEC4"
    },
    {
      "bufferView": 1,
      "componentType": 5126,
      "count": 4507,
      "max": [
        0.9986093640327454,
        0.9963928461074829
      ],
      "min": [
        0.0035428106784820557,
        0.004056305158883333
      ],
      "type": "VEC2"
    },
    {
      "bufferView": 1,
      "byteOffset": 36056,
      "componentType": 5126,
      "count": 4507,
      "max": [
        0.9986093640327454,
        0.9963928461074829
      ],
      "min": [
        0.0035428106784820557,
        0.004056305158883333
      ],
      "type": "VEC2"
    },
    {
      "bufferView": 1,
      "byteOffset": 72112,
      "componentType": 5126,
      "count": 4507,
      "max": [
        0.9986093640327454,
        0.9963928461074829
      ],
      "min": [
        0.0035428106784820557,
        0.004056305158883333
      ],
      "type": "VEC2"
    },
    {
      "bufferView": 0,
      "componentType": 5125,
      "count": 20982,
      "type": "SCALAR"
    },
    {
      "bufferView": 2,
      "byteOffset": 108168,
      "componentType": 5126,
      "count": 1148,
      "max": [
        1.1109504699707031,
        0.3475067615509033,
        1.0264620780944824
      ],
      "min": [
        -1.1109505891799927,
        -0.2057821899652481,
        0.4996996223926544
      ],
      "type": "VEC3"
    },
    {
      "bufferView": 2,
      "byteOffset": 121944,
      "componentType": 5126,
      "count": 1148,
      "max": [
        0.9698436260223389,
        0.7216535806655884,
        0.9995399117469788
      ],
      "min": [
        -0.9698435068130493,
        -0.9883960485458374,
        -0.927092969417572
      ],
      "type": "VEC3"
    },
    {
      "bufferView": 1,
      "byteOffset": 108168,
      "componentType": 5126,
      "count": 1148,
      "max": [
        0.7758457660675049,
        0.5363067388534546
      ],
      "min": [
        0.7139095664024353,
        0.33401793241500854
      ],
      "type": "VEC2"
    },
    {
      "bufferView": 1,
      "byteOffset": 117352,
      "componentType": 5126,
      "count": 1148,
      "max": [
        0.7758457660675049,
        0.5363067388534546
      ],
      "min": [
        0.7139095664024353,
        0.33401793241500854
      ],
      "type": "VEC2"
    },
    {
      "bufferView": 1,
      "byteOffset": 126536,
      "componentType": 5126,
      "count": 1148,
      "max": [
        0.7758457660675049,
        0.5363067388534546
      ],
      "min": [
        0.7139095664024353,
        0.33401793241500854
      ],
      "type": "VEC2"
    },
    {
      "bufferView": 0,
      "byteOffset": 83928,
      "componentType": 5125,
      "count": 3030,
      "type": "SCALAR"
    }
  ],
  "asset": {
    "extras": {
      "author": "mohamedhussien (https://sketchfab.com/mohamedhussien)",
      "license": "CC-BY-4.0 (http://creativecommons.org/licenses/by/4.0/)",
      "source": "https://sketchfab.com/3d-models/sofa-03-4k-7d4bdddb547241aa9cfaacf04186184e",
      "title": "Sofa 03 4k"
    },
    "generator": "Sketchfab-12.56.0",
    "version": "2.0"
  },
  "bufferViews": [
    {
      "buffer": 0,
      "byteLength": 96048,
      "name": "floatBufferViews",
      "target": 34963
    },
    {
      "buffer": 0,
      "byteLength": 135720,
      "byteOffset": 96048,
      "byteStride": 8,
      "name": "floatBufferViews",
      "target": 34962
    },
    {
      "buffer": 0,
      "byteLength": 135720,
      "byteOffset": 231768,
      "byteStride": 12,
      "name": "floatBufferViews",
      "target": 34962
    },
    {
      "buffer": 0,
      "byteLength": 72112,
      "byteOffset": 367488,
      "byteStride": 16,
      "name": "floatBufferViews",
      "target": 34962
    }
  ],
  "buffers": [
    {
      "byteLength": 439600,
      "uri": "scene.bin"
    }
  ],
  "images": [
    {
      "uri": "textures/sofa_03_baseColor.jpeg"
    },
    {
      "uri": "textures/sofa_03_metallicRoughness.png"
    },
    {
      "uri": "textures/sofa_03_normal.png"
    }
  ],
  "materials": [
    {
      "doubleSided": true,
      "name": "sofa_03",
      "normalTexture": {
        "index": 2
      },
      "occlusionTexture": {
        "index": 1
      },
      "pbrMetallicRoughness": {
        "baseColorTexture": {
          "index": 0
        },
        "metallicFactor": 0.0,
        "metallicRoughnessTexture": {
          "index": 1
        }
      }
    },
    {
      "doubleSided": true,
      "name": "sofa_03_fringe",
      "pbrMetallicRoughness": {
        "baseColorTexture": {
          "index": 0
        },
        "metallicFactor": 0.0,
        "roughnessFactor": 0.8211145618000169
      }
    }
  ],
  "meshes": [
    {
      "name": "sofa_03_sofa_03_0",
      "primitives": [
        {
          "attributes": {
            "NORMAL": 1,
            "POSITION": 0,
            "TANGENT": 2,
            "TEXCOORD_0": 3,
            "TEXCOORD_1": 4,
            "TEXCOORD_2": 5
          },
          "indices": 6,
          "material": 0,
          "mode": 4
        }
      ]
    },
    {
      "name": "sofa_03_sofa_03_fringe_0",
      "primitives": [
        {
          "attributes": {
            "NORMAL": 8,
            "POSITION": 7,
            "TEXCOORD_0": 9,
            "TEXCOORD_1": 10,
            "TEXCOORD_2": 11
          },
          "indices": 12,
          "material": 1,
          "mode": 4
        }
      ]
    }
  ],
  "nodes": [
    {
      "children": [
        1
      ],
      "matrix": [
        1.0,
        0.0,
        0.0,
        0.0,
        0.0,
        2.220446049250313e-16,
        -1.0,
        0.0,
        0.0,
        1.0,
        2.220446049250313e-16,
        0.0,
        0.0,
        0.0,
        0.0,
        1.0
      ],
      "name": "Sketchfab_model"
    },
    {
      "children": [
        2
      ],
      "matrix": [
        0.009999999776482582,
        0.0,
        0.0,
        0.0,
        0.0,
        0.0,
        0.009999999776482582,
        0.0,
        0.0,
        -0.009999999776482582,
        0.0,
        0.0,
        0.0,
        0.0,
        0.0,
        1.0
      ],
      "name": "sofa_03_4k.fbx"
    },
    {
      "children": [
        3
      ],
      "name": "RootNode"
    },
    {
      "children": [
        4,
        5
      ],
      "matrix": [
        100.0,
        0.0,
        0.0,
        0.0,
        0.0,
        -1.629206793918314e-05,
        -99.99999999999868,
        0.0,
        0.0,
        99.99999999999868,
        -1.629206793918314e-05,
        0.0,
        0.0,
        0.0,
        0.0,
        1.0
      ],
      "name": "sofa_03"
    },
    {
      "mesh": 0,
      "name": "sofa_03_sofa_03_0"
    },
    {
      "mesh": 1,
      "name": "sofa_03_sofa_03_fringe_0"
    }
  ],
  "samplers": [
    {
      "magFilter": 9729,
      "minFilter": 9987,
      "wrapS": 10497,
      "wrapT": 10497
    }
  ],
  "scene": 0,
  "scenes": [
    {
      "name": "Sketchfab_Scene",
      "nodes": [
        0
      ]
    }
  ],
  "textures": [
    {
      "sampler": 0,
      "source": 0
    },
    {
      "sampler": 0,
      "source": 1
    },
    {
      "sampler": 0,
      "source": 2
    }
  ]
}
